<?xml version="1.0" encoding="UTF-8"?>
<svg xmlns="http://www.w3.org/2000/svg" xmlns:xlink="http://www.w3.org/1999/xlink" width="24px" height="25px" viewBox="0 0 24 24" version="1.1">
<g id="surface1">
<path style=" stroke:none;fill-rule:nonzero;fill:rgb(0%,0%,0%);fill-opacity:1;" d="M 11.296875 0.0195312 C 9.5 0.125 7.636719 0.675781 6.089844 1.554688 C 4.8125 2.285156 3.660156 3.253906 2.734375 4.378906 C 1.46875 5.910156 0.605469 7.753906 0.222656 9.710938 C 0.0625 10.535156 0.0117188 11.097656 0.0117188 12 C 0.0117188 12.902344 0.0625 13.464844 0.222656 14.289062 C 0.566406 16.058594 1.308594 17.738281 2.386719 19.179688 C 3.023438 20.03125 3.835938 20.859375 4.671875 21.5 C 4.773438 21.578125 4.929688 21.707031 5.015625 21.789062 C 5.253906 22.007812 5.574219 22.21875 5.9375 22.402344 C 6.207031 22.539062 7.199219 23 7.398438 23.082031 C 8.539062 23.550781 9.703125 23.835938 10.976562 23.953125 C 11.460938 24 12.535156 24 13.019531 23.953125 C 14.59375 23.808594 16.050781 23.394531 17.382812 22.71875 C 18.484375 22.160156 18.679688 22.042969 19.117188 21.671875 C 19.214844 21.59375 19.425781 21.421875 19.589844 21.285156 C 19.917969 21.023438 20.527344 20.449219 20.820312 20.128906 C 22.335938 18.472656 23.347656 16.46875 23.773438 14.289062 C 23.933594 13.464844 23.984375 12.902344 23.984375 12 C 23.984375 11.097656 23.933594 10.535156 23.773438 9.710938 C 23.351562 7.546875 22.367188 5.582031 20.867188 3.917969 C 20.578125 3.597656 19.949219 3 19.609375 2.726562 C 17.984375 1.402344 16.082031 0.53125 14.042969 0.179688 C 13.140625 0.0234375 12.1875 -0.03125 11.296875 0.0195312 Z M 12.644531 0.113281 C 15.214844 0.265625 17.566406 1.179688 19.550781 2.800781 C 20.046875 3.203125 20.878906 4.027344 20.820312 4.046875 C 20.804688 4.054688 20.738281 4.113281 20.675781 4.179688 C 20.613281 4.246094 20.476562 4.359375 20.375 4.433594 C 20.199219 4.5625 19.769531 4.820312 19.730469 4.820312 C 19.71875 4.820312 19.632812 4.71875 19.539062 4.597656 C 18.707031 3.550781 17.664062 2.648438 16.433594 1.90625 L 16.144531 1.730469 L 16.230469 1.679688 C 16.351562 1.609375 16.679688 1.367188 16.75 1.296875 C 16.804688 1.242188 16.804688 1.234375 16.777344 1.207031 C 16.746094 1.179688 16.730469 1.1875 16.59375 1.304688 C 16.441406 1.429688 16.179688 1.609375 16.082031 1.648438 C 16.039062 1.671875 16.019531 1.664062 15.859375 1.578125 C 15.628906 1.449219 14.847656 1.078125 14.554688 0.957031 C 13.671875 0.597656 12.601562 0.269531 11.882812 0.140625 C 11.789062 0.121094 11.707031 0.105469 11.703125 0.101562 C 11.6875 0.0859375 12.332031 0.09375 12.644531 0.113281 Z M 10.746094 0.214844 C 9.707031 0.472656 8.695312 0.859375 7.808594 1.339844 C 7.664062 1.417969 7.539062 1.480469 7.53125 1.480469 C 7.5 1.480469 7.335938 1.238281 7.300781 1.128906 L 7.277344 1.074219 L 7.386719 1.027344 C 8.359375 0.601562 9.625 0.28125 10.804688 0.152344 C 11.085938 0.121094 11.078125 0.132812 10.746094 0.214844 Z M 11.46875 0.601562 C 11.507812 1.3125 11.542969 2.558594 11.523438 2.578125 C 11.519531 2.582031 11.300781 2.578125 11.035156 2.566406 C 10.480469 2.546875 9.726562 2.472656 9.6875 2.433594 C 9.675781 2.421875 9.890625 1.996094 10.023438 1.773438 C 10.15625 1.542969 10.449219 1.117188 10.597656 0.9375 C 10.667969 0.847656 10.808594 0.703125 10.902344 0.609375 C 11.105469 0.40625 11.414062 0.179688 11.433594 0.210938 C 11.441406 0.226562 11.457031 0.398438 11.46875 0.601562 Z M 11.683594 0.28125 C 11.964844 0.460938 12.351562 0.824219 12.625 1.164062 C 12.964844 1.59375 13.46875 2.421875 13.414062 2.457031 C 13.386719 2.472656 13.304688 2.484375 12.875 2.523438 C 12.574219 2.550781 11.664062 2.589844 11.640625 2.578125 C 11.632812 2.574219 11.621094 2.304688 11.617188 1.984375 C 11.605469 1.382812 11.574219 0.660156 11.546875 0.371094 C 11.539062 0.28125 11.539062 0.207031 11.546875 0.207031 C 11.554688 0.207031 11.613281 0.242188 11.683594 0.28125 Z M 11.074219 0.324219 C 10.605469 0.699219 10.128906 1.335938 9.734375 2.109375 C 9.648438 2.273438 9.574219 2.414062 9.570312 2.417969 C 9.5625 2.425781 9.207031 2.347656 8.988281 2.285156 C 8.625 2.183594 8.144531 1.988281 8.167969 1.949219 C 8.1875 1.921875 8.609375 1.578125 8.785156 1.453125 C 9.449219 0.964844 10.261719 0.539062 10.996094 0.292969 C 11.179688 0.234375 11.183594 0.234375 11.074219 0.324219 Z M 12.566406 0.527344 C 13.332031 0.859375 14.085938 1.34375 14.738281 1.925781 C 14.851562 2.023438 14.945312 2.113281 14.949219 2.121094 C 14.964844 2.160156 13.769531 2.4375 13.578125 2.4375 C 13.546875 2.4375 13.523438 2.410156 13.472656 2.308594 C 13.28125 1.925781 12.914062 1.363281 12.636719 1.03125 C 12.457031 0.8125 12.046875 0.417969 11.90625 0.324219 C 11.855469 0.289062 11.816406 0.257812 11.816406 0.253906 C 11.816406 0.234375 12.324219 0.421875 12.566406 0.527344 Z M 12.75 0.441406 C 13.289062 0.585938 13.976562 0.824219 14.554688 1.0625 C 14.878906 1.195312 15.539062 1.507812 15.765625 1.632812 L 15.9375 1.730469 L 15.824219 1.785156 C 15.667969 1.863281 15.394531 1.980469 15.21875 2.042969 L 15.074219 2.09375 L 14.855469 1.898438 C 14.117188 1.242188 13.460938 0.824219 12.46875 0.375 C 12.40625 0.351562 12.4375 0.355469 12.75 0.441406 Z M 10.273438 0.476562 C 9.558594 0.789062 8.648438 1.375 8.15625 1.832031 L 8.066406 1.917969 L 7.925781 1.824219 C 7.847656 1.773438 7.742188 1.691406 7.6875 1.644531 L 7.59375 1.5625 L 7.734375 1.484375 C 8.230469 1.214844 8.855469 0.929688 9.402344 0.726562 C 9.730469 0.605469 10.375 0.394531 10.429688 0.394531 C 10.445312 0.394531 10.375 0.429688 10.273438 0.476562 Z M 7.300781 1.351562 C 7.332031 1.398438 7.378906 1.457031 7.40625 1.484375 L 7.453125 1.535156 L 7.359375 1.589844 C 7.164062 1.703125 6.636719 2.046875 6.417969 2.203125 C 5.542969 2.84375 4.734375 3.636719 4.125 4.460938 L 3.960938 4.6875 L 3.855469 4.597656 C 3.648438 4.425781 3.460938 4.167969 3.378906 3.941406 L 3.332031 3.828125 L 3.75 3.425781 C 4.714844 2.5 5.738281 1.792969 6.898438 1.246094 L 7.1875 1.109375 L 7.214844 1.1875 C 7.234375 1.230469 7.273438 1.304688 7.300781 1.351562 Z M 7.625 1.71875 C 7.691406 1.777344 7.800781 1.855469 7.863281 1.898438 L 7.984375 1.976562 L 7.691406 2.265625 C 7.363281 2.59375 7.171875 2.8125 6.878906 3.1875 C 6.421875 3.78125 5.984375 4.503906 5.675781 5.183594 C 5.609375 5.328125 5.550781 5.453125 5.542969 5.460938 C 5.519531 5.484375 5.078125 5.316406 4.742188 5.15625 C 4.496094 5.039062 4.21875 4.878906 4.050781 4.757812 C 4.03125 4.742188 4.289062 4.394531 4.554688 4.074219 C 5.253906 3.234375 6.097656 2.5 7.027344 1.90625 C 7.296875 1.734375 7.488281 1.617188 7.5 1.613281 C 7.503906 1.613281 7.5625 1.660156 7.625 1.71875 Z M 16.441406 2.019531 C 17.425781 2.617188 18.339844 3.371094 19.0625 4.183594 C 19.234375 4.375 19.5 4.695312 19.585938 4.816406 L 19.632812 4.875 L 19.460938 4.953125 C 18.929688 5.191406 18.164062 5.441406 17.433594 5.613281 C 17.386719 5.625 17.378906 5.617188 17.355469 5.5625 C 17.1875 5.152344 16.894531 4.546875 16.679688 4.171875 C 16.308594 3.53125 15.742188 2.773438 15.304688 2.34375 C 15.21875 2.253906 15.144531 2.179688 15.144531 2.171875 C 15.144531 2.167969 15.179688 2.152344 15.226562 2.140625 C 15.339844 2.105469 15.679688 1.964844 15.875 1.867188 L 16.039062 1.785156 L 16.125 1.832031 C 16.175781 1.859375 16.316406 1.945312 16.441406 2.019531 Z M 8.695312 2.296875 C 8.898438 2.363281 9.398438 2.492188 9.464844 2.492188 C 9.488281 2.492188 9.511719 2.5 9.515625 2.511719 C 9.523438 2.523438 9.492188 2.609375 9.449219 2.703125 C 9.101562 3.503906 8.78125 4.566406 8.550781 5.675781 C 8.480469 6.015625 8.476562 6.039062 8.433594 6.039062 C 8.269531 6.039062 7.273438 5.894531 6.8125 5.800781 C 6.4375 5.726562 5.671875 5.53125 5.644531 5.503906 C 5.628906 5.488281 5.90625 4.914062 6.085938 4.585938 C 6.574219 3.699219 7.101562 2.992188 7.78125 2.3125 L 8.066406 2.027344 L 8.28125 2.128906 C 8.398438 2.183594 8.585938 2.257812 8.695312 2.296875 Z M 15.214844 2.386719 C 15.78125 2.949219 16.371094 3.777344 16.820312 4.632812 C 17.03125 5.039062 17.292969 5.621094 17.269531 5.640625 C 17.242188 5.667969 16.390625 5.824219 15.828125 5.90625 C 15.339844 5.972656 14.722656 6.042969 14.707031 6.03125 C 14.703125 6.027344 14.667969 5.882812 14.632812 5.714844 C 14.390625 4.589844 14.035156 3.484375 13.65625 2.675781 C 13.617188 2.597656 13.59375 2.53125 13.601562 2.53125 C 13.722656 2.53125 14.625 2.335938 14.882812 2.25 C 14.949219 2.230469 15.007812 2.214844 15.019531 2.214844 C 15.03125 2.210938 15.117188 2.292969 15.214844 2.386719 Z M 9.839844 2.558594 C 10.152344 2.609375 10.546875 2.640625 11.046875 2.664062 C 11.316406 2.671875 11.539062 2.683594 11.539062 2.6875 C 11.550781 2.699219 11.582031 6.160156 11.570312 6.171875 C 11.550781 6.1875 10.089844 6.15625 9.640625 6.132812 C 8.894531 6.089844 8.582031 6.058594 8.582031 6.03125 C 8.582031 6.019531 8.597656 5.945312 8.609375 5.867188 C 8.835938 4.742188 9.144531 3.675781 9.488281 2.867188 C 9.539062 2.738281 9.59375 2.613281 9.605469 2.582031 C 9.628906 2.523438 9.613281 2.523438 9.839844 2.558594 Z M 13.558594 2.695312 C 13.792969 3.183594 14.101562 4.039062 14.289062 4.707031 C 14.386719 5.070312 14.578125 5.871094 14.589844 5.992188 L 14.597656 6.046875 L 14.460938 6.058594 C 13.925781 6.113281 12.746094 6.167969 12.128906 6.171875 L 11.683594 6.171875 L 11.671875 5.460938 C 11.667969 5.070312 11.65625 4.289062 11.648438 3.71875 L 11.636719 2.683594 L 11.839844 2.671875 C 11.949219 2.667969 12.222656 2.65625 12.449219 2.644531 C 12.675781 2.628906 12.988281 2.605469 13.144531 2.589844 C 13.296875 2.570312 13.4375 2.554688 13.453125 2.550781 C 13.476562 2.550781 13.507812 2.589844 13.558594 2.695312 Z M 3.304688 4.027344 C 3.371094 4.195312 3.53125 4.417969 3.726562 4.605469 L 3.90625 4.777344 L 3.820312 4.894531 C 3.34375 5.59375 2.875 6.542969 2.574219 7.4375 C 2.507812 7.636719 2.445312 7.800781 2.4375 7.800781 C 2.40625 7.800781 2.085938 7.546875 1.90625 7.378906 C 1.707031 7.191406 1.511719 6.949219 1.421875 6.777344 L 1.359375 6.664062 L 1.460938 6.46875 C 1.777344 5.855469 2.246094 5.136719 2.707031 4.5625 C 2.855469 4.378906 3.25 3.917969 3.261719 3.917969 C 3.261719 3.917969 3.285156 3.96875 3.304688 4.027344 Z M 21.195312 4.449219 C 21.71875 5.082031 22.191406 5.804688 22.589844 6.578125 L 22.746094 6.882812 L 22.550781 7.074219 C 22.34375 7.269531 22.027344 7.515625 21.753906 7.683594 C 21.542969 7.8125 21.320312 7.9375 21.3125 7.925781 C 21.308594 7.925781 21.28125 7.851562 21.253906 7.761719 C 20.945312 6.847656 20.511719 5.980469 19.949219 5.160156 C 19.855469 5.019531 19.78125 4.90625 19.785156 4.90625 C 19.789062 4.902344 19.851562 4.867188 19.925781 4.828125 C 20.105469 4.734375 20.300781 4.609375 20.457031 4.496094 C 20.597656 4.394531 20.832031 4.171875 20.863281 4.117188 C 20.886719 4.074219 20.875 4.058594 21.195312 4.449219 Z M 4.183594 4.960938 C 4.503906 5.164062 5.214844 5.488281 5.445312 5.539062 C 5.476562 5.546875 5.503906 5.554688 5.503906 5.558594 C 5.503906 5.5625 5.457031 5.679688 5.398438 5.824219 C 5.160156 6.425781 4.933594 7.171875 4.773438 7.875 C 4.722656 8.082031 4.628906 8.578125 4.609375 8.703125 C 4.601562 8.753906 4.589844 8.792969 4.582031 8.792969 C 4.550781 8.792969 4.164062 8.660156 3.878906 8.546875 C 3.390625 8.359375 2.578125 7.941406 2.546875 7.863281 C 2.535156 7.832031 2.773438 7.136719 2.910156 6.804688 C 3.121094 6.308594 3.339844 5.863281 3.601562 5.425781 C 3.726562 5.210938 3.96875 4.835938 3.984375 4.835938 C 3.992188 4.835938 4.082031 4.890625 4.183594 4.960938 Z M 19.875 5.21875 C 20.328125 5.882812 20.6875 6.554688 20.980469 7.292969 C 21.066406 7.511719 21.226562 7.972656 21.21875 7.980469 C 21.21875 7.980469 21.128906 8.027344 21.019531 8.078125 C 20.578125 8.296875 19.914062 8.546875 19.328125 8.71875 C 18.949219 8.832031 18.261719 9.003906 18.25 8.996094 C 18.246094 8.988281 18.21875 8.847656 18.191406 8.679688 C 18.050781 7.75 17.828125 6.875 17.523438 6.011719 C 17.457031 5.820312 17.425781 5.714844 17.441406 5.710938 C 17.453125 5.707031 17.585938 5.671875 17.734375 5.632812 C 18.386719 5.46875 19.078125 5.234375 19.523438 5.027344 C 19.605469 4.988281 19.683594 4.960938 19.691406 4.964844 C 19.699219 4.96875 19.78125 5.082031 19.875 5.21875 Z M 6.300781 5.785156 C 6.867188 5.917969 7.488281 6.027344 8.183594 6.105469 C 8.421875 6.132812 8.464844 6.140625 8.457031 6.167969 C 8.453125 6.183594 8.417969 6.382812 8.378906 6.609375 C 8.261719 7.347656 8.160156 8.199219 8.089844 9.066406 C 8.074219 9.28125 8.054688 9.464844 8.050781 9.46875 C 8.039062 9.480469 7.214844 9.375 6.761719 9.300781 C 6.222656 9.210938 5.703125 9.101562 5.269531 8.992188 C 4.746094 8.855469 4.679688 8.832031 4.6875 8.796875 C 4.691406 8.78125 4.714844 8.644531 4.742188 8.492188 C 4.917969 7.539062 5.246094 6.402344 5.570312 5.660156 L 5.597656 5.589844 L 5.777344 5.648438 C 5.875 5.675781 6.113281 5.738281 6.300781 5.785156 Z M 17.410156 5.972656 C 17.574219 6.417969 17.789062 7.152344 17.90625 7.679688 C 18.027344 8.226562 18.15625 8.996094 18.132812 9.019531 C 18.109375 9.042969 17.429688 9.175781 16.960938 9.25 C 16.375 9.347656 16.136719 9.375 15.21875 9.476562 C 15.148438 9.484375 15.125 9.480469 15.125 9.464844 C 15.125 9.390625 15.042969 8.429688 15.007812 8.117188 C 14.945312 7.519531 14.804688 6.539062 14.738281 6.238281 C 14.726562 6.1875 14.722656 6.144531 14.726562 6.140625 C 14.730469 6.136719 14.890625 6.113281 15.089844 6.09375 C 15.753906 6.019531 16.359375 5.925781 16.925781 5.8125 C 17.113281 5.773438 17.28125 5.742188 17.296875 5.746094 C 17.316406 5.746094 17.359375 5.835938 17.410156 5.972656 Z M 9.0625 6.1875 C 9.492188 6.222656 10.050781 6.242188 11.1875 6.273438 L 11.585938 6.285156 L 11.585938 9.644531 L 10.8125 9.632812 C 10.382812 9.625 9.808594 9.605469 9.535156 9.589844 C 8.980469 9.558594 8.179688 9.492188 8.164062 9.476562 C 8.125 9.445312 8.332031 7.507812 8.449219 6.789062 C 8.550781 6.15625 8.550781 6.148438 8.578125 6.148438 C 8.585938 6.148438 8.804688 6.167969 9.0625 6.1875 Z M 14.628906 6.191406 C 14.660156 6.304688 14.785156 7.089844 14.835938 7.480469 C 14.933594 8.25 15.042969 9.464844 15.015625 9.488281 C 15 9.503906 14.113281 9.566406 13.496094 9.601562 C 13.296875 9.609375 12.800781 9.625 12.398438 9.632812 L 11.671875 9.644531 L 11.679688 6.285156 L 11.753906 6.273438 C 11.792969 6.269531 11.996094 6.261719 12.199219 6.261719 C 12.753906 6.261719 14.363281 6.183594 14.390625 6.15625 C 14.394531 6.152344 14.449219 6.148438 14.511719 6.148438 C 14.609375 6.148438 14.621094 6.152344 14.628906 6.191406 Z M 1.367188 6.878906 C 1.515625 7.136719 1.875 7.511719 2.234375 7.777344 L 2.417969 7.914062 L 2.363281 8.105469 C 2.152344 8.84375 1.976562 9.875 1.914062 10.753906 C 1.898438 10.988281 1.878906 11.242188 1.871094 11.3125 L 1.855469 11.4375 L 1.539062 11.285156 C 0.949219 10.992188 0.554688 10.71875 0.273438 10.402344 L 0.210938 10.332031 L 0.261719 10.042969 C 0.417969 9.128906 0.652344 8.308594 0.980469 7.5 C 1.089844 7.222656 1.292969 6.789062 1.304688 6.789062 C 1.3125 6.789062 1.339844 6.828125 1.367188 6.878906 Z M 22.914062 7.261719 C 23.304688 8.164062 23.570312 9.0625 23.734375 10.039062 C 23.804688 10.460938 23.808594 10.503906 23.785156 10.492188 C 23.773438 10.484375 23.71875 10.515625 23.664062 10.566406 C 23.488281 10.71875 23.148438 10.933594 22.804688 11.113281 C 22.546875 11.246094 21.925781 11.507812 21.910156 11.492188 C 21.90625 11.488281 21.894531 11.320312 21.882812 11.117188 C 21.820312 10.082031 21.65625 9.09375 21.40625 8.253906 C 21.359375 8.089844 21.347656 8.03125 21.367188 8.019531 C 21.378906 8.011719 21.507812 7.933594 21.652344 7.851562 C 22.015625 7.640625 22.347656 7.398438 22.578125 7.171875 C 22.6875 7.070312 22.78125 6.984375 22.789062 6.988281 C 22.792969 6.992188 22.851562 7.113281 22.914062 7.261719 Z M 2.78125 8.132812 C 3.195312 8.375 3.773438 8.625 4.304688 8.804688 C 4.449219 8.855469 4.570312 8.894531 4.570312 8.894531 C 4.574219 8.898438 4.566406 8.945312 4.558594 9 C 4.445312 9.671875 4.359375 10.71875 4.335938 11.652344 C 4.328125 11.949219 4.316406 12.1875 4.308594 12.1875 C 4.277344 12.1875 3.5625 12.007812 3.320312 11.941406 C 2.867188 11.8125 2.335938 11.632812 2.054688 11.515625 L 1.960938 11.476562 L 1.972656 11.273438 C 2.039062 10.078125 2.21875 8.925781 2.476562 8.066406 L 2.503906 7.96875 L 2.554688 8 C 2.585938 8.015625 2.6875 8.078125 2.78125 8.132812 Z M 21.320312 8.300781 C 21.574219 9.203125 21.722656 10.085938 21.78125 11.089844 C 21.792969 11.265625 21.800781 11.4375 21.800781 11.476562 L 21.800781 11.542969 L 21.394531 11.675781 C 20.589844 11.941406 19.867188 12.117188 18.839844 12.300781 C 18.617188 12.339844 18.425781 12.375 18.425781 12.375 C 18.421875 12.375 18.414062 11.972656 18.410156 11.480469 C 18.398438 10.523438 18.367188 10.03125 18.265625 9.195312 L 18.257812 9.097656 L 18.503906 9.039062 C 19.449219 8.8125 20.3125 8.515625 21.011719 8.1875 C 21.132812 8.128906 21.242188 8.082031 21.246094 8.082031 C 21.253906 8.082031 21.285156 8.179688 21.320312 8.300781 Z M 4.859375 8.980469 C 5.75 9.234375 6.5625 9.386719 7.949219 9.558594 L 8.054688 9.570312 L 8.050781 9.636719 C 8.003906 10.285156 7.964844 11.484375 7.964844 12.203125 L 7.964844 12.699219 L 7.808594 12.6875 C 6.773438 12.601562 5.613281 12.445312 4.742188 12.277344 L 4.433594 12.214844 L 4.441406 11.679688 C 4.445312 10.917969 4.507812 10.0625 4.609375 9.335938 C 4.625 9.21875 4.644531 9.078125 4.648438 9.023438 C 4.65625 8.96875 4.664062 8.925781 4.667969 8.925781 C 4.667969 8.925781 4.757812 8.949219 4.859375 8.980469 Z M 18.179688 9.292969 C 18.207031 9.484375 18.253906 9.964844 18.28125 10.339844 C 18.292969 10.484375 18.308594 11.003906 18.3125 11.496094 L 18.324219 12.386719 L 18.058594 12.425781 C 17.296875 12.542969 16.222656 12.65625 15.5 12.703125 C 15.40625 12.707031 15.292969 12.71875 15.253906 12.726562 L 15.175781 12.734375 L 15.1875 12.402344 C 15.199219 12.007812 15.171875 10.324219 15.144531 9.890625 C 15.132812 9.726562 15.128906 9.589844 15.128906 9.585938 C 15.132812 9.585938 15.332031 9.5625 15.566406 9.535156 C 16.078125 9.476562 16.566406 9.414062 17.023438 9.335938 C 17.394531 9.277344 18.035156 9.152344 18.046875 9.140625 C 18.050781 9.136719 18.078125 9.132812 18.109375 9.132812 C 18.160156 9.132812 18.160156 9.136719 18.179688 9.292969 Z M 8.832031 9.636719 C 9.578125 9.691406 10.082031 9.714844 10.859375 9.730469 L 11.566406 9.742188 L 11.566406 11.277344 C 11.566406 12.121094 11.5625 12.816406 11.558594 12.824219 C 11.535156 12.855469 9.496094 12.796875 8.574219 12.742188 C 8.34375 12.726562 8.132812 12.710938 8.105469 12.710938 L 8.0625 12.710938 L 8.0625 12.171875 C 8.0625 11.578125 8.085938 10.738281 8.125 10.03125 L 8.148438 9.578125 L 8.242188 9.589844 C 8.296875 9.59375 8.5625 9.613281 8.832031 9.636719 Z M 15.066406 10.292969 C 15.089844 10.886719 15.101562 12.703125 15.082031 12.722656 C 15.050781 12.753906 13.429688 12.816406 12.222656 12.832031 L 11.660156 12.839844 L 11.664062 11.289062 L 11.671875 9.742188 L 12.34375 9.726562 C 13.222656 9.710938 14.132812 9.667969 14.875 9.605469 L 15.019531 9.589844 L 15.03125 9.65625 C 15.039062 9.691406 15.054688 9.980469 15.066406 10.292969 Z M 0.671875 10.886719 C 0.90625 11.054688 1.285156 11.269531 1.589844 11.414062 L 1.867188 11.539062 L 1.867188 12.09375 C 1.867188 12.851562 1.914062 13.53125 2.007812 14.175781 C 2.035156 14.335938 2.050781 14.46875 2.046875 14.472656 C 2.039062 14.484375 1.5625 14.234375 1.347656 14.105469 C 0.925781 13.851562 0.496094 13.492188 0.316406 13.246094 C 0.257812 13.167969 0.230469 13.144531 0.199219 13.152344 C 0.148438 13.164062 0.144531 13.132812 0.113281 12.601562 C 0.0820312 12.027344 0.113281 11.085938 0.183594 10.554688 L 0.195312 10.46875 L 0.355469 10.621094 C 0.445312 10.707031 0.585938 10.824219 0.671875 10.886719 Z M 23.839844 10.8125 C 23.929688 11.789062 23.910156 12.746094 23.78125 13.648438 C 23.507812 15.570312 22.78125 17.390625 21.664062 18.941406 C 21.441406 19.25 21.246094 19.417969 20.816406 19.679688 C 20.308594 19.984375 19.421875 20.347656 18.703125 20.539062 C 18.652344 20.554688 18.636719 20.574219 18.902344 20.292969 C 19.53125 19.625 20.152344 18.746094 20.589844 17.886719 L 20.730469 17.617188 L 21.015625 17.503906 C 21.765625 17.21875 22.511719 16.789062 22.886719 16.433594 C 23.015625 16.3125 23.019531 16.308594 22.976562 16.28125 C 22.9375 16.253906 22.929688 16.257812 22.824219 16.359375 C 22.535156 16.640625 21.910156 17.023438 21.339844 17.269531 C 21.097656 17.375 20.796875 17.496094 20.792969 17.488281 C 20.789062 17.484375 20.847656 17.347656 20.921875 17.179688 C 21.214844 16.496094 21.472656 15.652344 21.621094 14.898438 C 21.648438 14.753906 21.675781 14.625 21.683594 14.609375 C 21.691406 14.597656 21.800781 14.539062 21.925781 14.484375 C 22.621094 14.1875 23.253906 13.804688 23.636719 13.453125 C 23.769531 13.335938 23.773438 13.332031 23.738281 13.296875 C 23.703125 13.261719 23.703125 13.261719 23.597656 13.363281 C 23.359375 13.589844 23.03125 13.816406 22.601562 14.054688 C 22.332031 14.203125 21.730469 14.484375 21.714844 14.46875 C 21.710938 14.464844 21.722656 14.347656 21.742188 14.210938 C 21.84375 13.539062 21.882812 13.058594 21.898438 12.265625 L 21.910156 11.601562 L 22.089844 11.53125 C 22.71875 11.289062 23.414062 10.914062 23.699219 10.660156 C 23.75 10.613281 23.800781 10.578125 23.804688 10.574219 C 23.8125 10.574219 23.828125 10.683594 23.839844 10.8125 Z M 2.21875 11.679688 C 2.703125 11.867188 3.402344 12.078125 4.019531 12.21875 L 4.328125 12.289062 L 4.328125 12.394531 C 4.328125 12.621094 4.371094 13.4375 4.398438 13.761719 C 4.433594 14.210938 4.472656 14.535156 4.535156 14.949219 C 4.5625 15.132812 4.578125 15.289062 4.574219 15.292969 C 4.542969 15.324219 3.363281 14.988281 2.871094 14.808594 C 2.644531 14.726562 2.175781 14.539062 2.160156 14.527344 C 2.160156 14.523438 2.136719 14.375 2.109375 14.195312 C 2.007812 13.488281 1.960938 12.855469 1.960938 12.09375 C 1.960938 11.8125 1.964844 11.585938 1.972656 11.585938 C 1.976562 11.585938 2.085938 11.628906 2.21875 11.679688 Z M 21.796875 12.304688 C 21.78125 13.050781 21.730469 13.703125 21.628906 14.34375 C 21.597656 14.523438 21.601562 14.523438 21.460938 14.578125 C 20.699219 14.875 19.679688 15.160156 18.648438 15.363281 C 18.40625 15.410156 18.191406 15.453125 18.167969 15.460938 C 18.125 15.46875 18.125 15.46875 18.132812 15.410156 C 18.242188 14.851562 18.355469 13.746094 18.394531 12.882812 C 18.40625 12.660156 18.417969 12.476562 18.421875 12.476562 C 18.425781 12.472656 18.570312 12.445312 18.746094 12.414062 C 19.839844 12.21875 20.914062 11.953125 21.621094 11.703125 C 21.703125 11.671875 21.78125 11.648438 21.789062 11.644531 C 21.800781 11.644531 21.800781 11.917969 21.796875 12.304688 Z M 4.714844 12.367188 C 5.605469 12.539062 6.785156 12.699219 7.804688 12.78125 L 7.960938 12.792969 L 7.972656 13.273438 C 7.992188 13.90625 8.035156 14.726562 8.085938 15.328125 C 8.105469 15.59375 8.121094 15.8125 8.113281 15.816406 C 8.097656 15.835938 7.078125 15.726562 6.484375 15.644531 C 5.90625 15.566406 4.726562 15.355469 4.695312 15.328125 C 4.6875 15.316406 4.628906 14.964844 4.578125 14.585938 C 4.507812 14.027344 4.460938 13.414062 4.433594 12.667969 C 4.425781 12.378906 4.425781 12.320312 4.445312 12.320312 C 4.460938 12.320312 4.582031 12.339844 4.714844 12.367188 Z M 18.3125 12.640625 C 18.304688 12.726562 18.296875 12.910156 18.289062 13.050781 C 18.261719 13.691406 18.183594 14.46875 18.078125 15.144531 C 18.050781 15.3125 18.03125 15.457031 18.03125 15.46875 C 18.03125 15.515625 16.371094 15.730469 15.433594 15.804688 C 15.300781 15.816406 15.152344 15.832031 15.101562 15.835938 L 15.007812 15.847656 L 15.019531 15.792969 C 15.054688 15.601562 15.132812 14.304688 15.164062 13.453125 C 15.175781 13.113281 15.191406 12.832031 15.191406 12.828125 C 15.195312 12.824219 15.40625 12.804688 15.65625 12.785156 C 16.472656 12.722656 17.476562 12.613281 18.03125 12.527344 C 18.355469 12.472656 18.324219 12.460938 18.3125 12.640625 Z M 8.574219 12.835938 C 9.3125 12.882812 9.898438 12.902344 10.738281 12.917969 L 11.554688 12.929688 L 11.5625 14.445312 L 11.566406 15.960938 L 10.792969 15.949219 C 10.363281 15.941406 9.847656 15.929688 9.640625 15.917969 C 9.003906 15.890625 8.246094 15.839844 8.230469 15.828125 C 8.199219 15.796875 8.09375 14.171875 8.070312 13.289062 L 8.058594 12.804688 L 8.101562 12.804688 C 8.128906 12.804688 8.339844 12.820312 8.574219 12.835938 Z M 15.085938 12.941406 C 15.085938 13.328125 15.023438 14.558594 14.972656 15.21875 C 14.949219 15.480469 14.933594 15.714844 14.933594 15.746094 C 14.933594 15.835938 14.914062 15.84375 14.671875 15.863281 C 14.195312 15.898438 13.222656 15.9375 12.457031 15.949219 L 11.660156 15.960938 L 11.660156 12.929688 L 12.28125 12.921875 C 13.21875 12.914062 14.035156 12.886719 15.042969 12.828125 C 15.085938 12.824219 15.085938 12.832031 15.085938 12.941406 Z M 0.257812 13.328125 C 0.285156 13.367188 0.390625 13.476562 0.488281 13.574219 C 0.8125 13.894531 1.324219 14.234375 1.90625 14.515625 L 2.074219 14.59375 L 2.09375 14.71875 C 2.261719 15.609375 2.578125 16.640625 2.914062 17.371094 C 2.941406 17.433594 2.960938 17.484375 2.957031 17.488281 C 2.933594 17.511719 2.207031 17.160156 1.921875 16.984375 C 1.546875 16.757812 1.179688 16.457031 0.996094 16.222656 C 0.933594 16.140625 0.914062 16.128906 0.886719 16.144531 C 0.84375 16.167969 0.824219 16.121094 0.675781 15.65625 C 0.457031 14.980469 0.304688 14.3125 0.210938 13.632812 C 0.148438 13.175781 0.152344 13.183594 0.179688 13.226562 C 0.191406 13.246094 0.226562 13.292969 0.257812 13.328125 Z M 2.488281 14.765625 C 3.019531 14.976562 3.625 15.167969 4.269531 15.328125 L 4.605469 15.410156 L 4.6875 15.796875 C 4.851562 16.589844 5.082031 17.371094 5.339844 18.015625 C 5.375 18.113281 5.402344 18.195312 5.398438 18.199219 C 5.386719 18.214844 5.214844 18.175781 4.753906 18.066406 C 4.273438 17.949219 3.804688 17.8125 3.464844 17.691406 C 3.332031 17.640625 3.199219 17.59375 3.167969 17.582031 C 3.105469 17.5625 3.054688 17.46875 2.886719 17.066406 C 2.605469 16.382812 2.371094 15.609375 2.222656 14.863281 C 2.195312 14.71875 2.1875 14.644531 2.203125 14.648438 C 2.214844 14.65625 2.34375 14.707031 2.488281 14.765625 Z M 21.570312 14.660156 C 21.570312 14.703125 21.449219 15.25 21.382812 15.515625 C 21.21875 16.140625 21.035156 16.675781 20.777344 17.265625 C 20.640625 17.578125 20.695312 17.539062 20.207031 17.695312 C 19.40625 17.953125 18.613281 18.140625 17.625 18.308594 C 17.484375 18.332031 17.363281 18.347656 17.359375 18.347656 C 17.355469 18.34375 17.414062 18.164062 17.488281 17.949219 C 17.722656 17.28125 17.902344 16.613281 18.039062 15.921875 C 18.078125 15.730469 18.109375 15.570312 18.113281 15.570312 C 18.117188 15.566406 18.339844 15.523438 18.609375 15.46875 C 19.613281 15.273438 20.695312 14.972656 21.398438 14.703125 C 21.558594 14.640625 21.570312 14.636719 21.570312 14.660156 Z M 5.175781 15.523438 C 5.96875 15.679688 6.871094 15.804688 7.898438 15.898438 C 8.027344 15.914062 8.132812 15.925781 8.132812 15.925781 C 8.136719 15.929688 8.152344 16.046875 8.167969 16.191406 C 8.242188 16.835938 8.390625 17.753906 8.511719 18.328125 C 8.550781 18.492188 8.578125 18.628906 8.574219 18.632812 C 8.570312 18.640625 7.765625 18.566406 7.476562 18.53125 C 6.886719 18.464844 6.285156 18.375 5.742188 18.28125 L 5.53125 18.238281 L 5.421875 17.964844 C 5.214844 17.4375 5.046875 16.90625 4.90625 16.34375 C 4.835938 16.0625 4.714844 15.492188 4.714844 15.445312 C 4.714844 15.433594 4.730469 15.429688 4.757812 15.4375 C 4.78125 15.445312 4.96875 15.484375 5.175781 15.523438 Z M 17.996094 15.632812 C 17.863281 16.390625 17.601562 17.371094 17.34375 18.074219 L 17.238281 18.371094 L 17.023438 18.402344 C 16.664062 18.453125 16.097656 18.519531 15.671875 18.5625 C 15.292969 18.597656 14.617188 18.65625 14.609375 18.648438 C 14.609375 18.648438 14.636719 18.484375 14.675781 18.289062 C 14.792969 17.660156 14.894531 16.957031 14.96875 16.277344 C 14.992188 16.101562 15.007812 15.949219 15.015625 15.945312 C 15.019531 15.9375 15.210938 15.921875 15.433594 15.898438 C 15.929688 15.859375 16.320312 15.816406 16.722656 15.765625 C 17.105469 15.71875 17.921875 15.601562 17.933594 15.589844 C 17.9375 15.585938 17.957031 15.582031 17.972656 15.582031 C 18 15.582031 18.003906 15.59375 17.996094 15.632812 Z M 8.640625 15.957031 C 9.144531 15.996094 10.042969 16.03125 10.792969 16.042969 L 11.566406 16.054688 L 11.566406 17.164062 C 11.566406 17.773438 11.570312 18.378906 11.578125 18.511719 L 11.589844 18.75 L 11.0625 18.738281 C 10.179688 18.722656 8.921875 18.671875 8.742188 18.644531 C 8.683594 18.636719 8.679688 18.632812 8.640625 18.464844 C 8.507812 17.894531 8.339844 16.867188 8.273438 16.265625 C 8.261719 16.164062 8.25 16.046875 8.242188 16.007812 L 8.230469 15.9375 L 8.316406 15.9375 C 8.359375 15.9375 8.507812 15.945312 8.640625 15.957031 Z M 14.898438 16.027344 C 14.828125 16.777344 14.648438 17.988281 14.535156 18.507812 L 14.503906 18.652344 L 14.355469 18.664062 C 13.894531 18.703125 11.707031 18.761719 11.679688 18.738281 C 11.675781 18.734375 11.667969 18.128906 11.664062 17.390625 L 11.65625 16.054688 L 12.460938 16.042969 C 13.3125 16.03125 14.382812 15.984375 14.875 15.9375 C 14.902344 15.9375 14.90625 15.953125 14.898438 16.027344 Z M 1.183594 16.558594 C 1.554688 16.902344 2.257812 17.324219 2.878906 17.570312 L 3.035156 17.628906 L 3.171875 17.90625 C 3.625 18.789062 4.230469 19.640625 4.917969 20.359375 C 5.03125 20.472656 5.117188 20.570312 5.113281 20.570312 C 5.109375 20.570312 4.980469 20.527344 4.828125 20.476562 C 3.816406 20.144531 2.992188 19.683594 2.597656 19.234375 C 2.539062 19.171875 2.464844 19.089844 2.433594 19.058594 C 2.253906 18.890625 1.734375 18.0625 1.417969 17.441406 C 1.203125 17.027344 0.886719 16.3125 0.886719 16.25 C 0.886719 16.242188 0.917969 16.273438 0.960938 16.324219 C 1 16.375 1.101562 16.480469 1.183594 16.558594 Z M 20.492188 17.871094 C 20.039062 18.75 19.449219 19.578125 18.714844 20.347656 C 18.523438 20.550781 18.457031 20.609375 18.398438 20.625 C 17.796875 20.78125 16.902344 20.953125 16.203125 21.046875 C 16.082031 21.0625 15.953125 21.082031 15.917969 21.085938 C 15.886719 21.09375 15.855469 21.089844 15.855469 21.085938 C 15.855469 21.078125 15.921875 20.980469 16.007812 20.863281 C 16.4375 20.257812 16.804688 19.609375 17.132812 18.863281 C 17.210938 18.683594 17.28125 18.515625 17.289062 18.496094 C 17.300781 18.460938 17.328125 18.449219 17.507812 18.421875 C 17.84375 18.371094 18.640625 18.214844 18.984375 18.132812 C 19.394531 18.035156 20.03125 17.855469 20.339844 17.753906 C 20.472656 17.707031 20.582031 17.671875 20.585938 17.671875 C 20.589844 17.675781 20.546875 17.765625 20.492188 17.871094 Z M 3.628906 17.84375 C 4.128906 18.007812 4.894531 18.210938 5.351562 18.300781 L 5.460938 18.320312 L 5.5625 18.550781 C 5.925781 19.363281 6.535156 20.34375 7.019531 20.90625 L 7.109375 21.003906 L 7.003906 20.992188 C 6.8125 20.96875 6.039062 20.8125 5.6875 20.726562 L 5.339844 20.640625 L 5.21875 20.527344 C 4.699219 20.035156 4.097656 19.277344 3.664062 18.582031 C 3.515625 18.335938 3.175781 17.722656 3.175781 17.695312 C 3.175781 17.6875 3.207031 17.695312 3.25 17.714844 C 3.285156 17.730469 3.457031 17.789062 3.628906 17.84375 Z M 6.734375 18.53125 C 7.230469 18.601562 7.695312 18.65625 8.253906 18.703125 C 8.441406 18.71875 8.597656 18.738281 8.605469 18.742188 C 8.613281 18.75 8.621094 18.765625 8.621094 18.785156 C 8.621094 18.847656 8.851562 19.664062 8.96875 20.015625 C 9.089844 20.382812 9.261719 20.828125 9.378906 21.089844 C 9.417969 21.171875 9.449219 21.246094 9.449219 21.25 C 9.449219 21.261719 9.40625 21.257812 8.753906 21.203125 C 8.285156 21.164062 8.011719 21.136719 7.542969 21.074219 L 7.265625 21.039062 L 7.1875 20.957031 C 6.960938 20.714844 6.488281 20.050781 6.214844 19.59375 C 6.023438 19.269531 5.582031 18.402344 5.582031 18.347656 C 5.582031 18.347656 5.734375 18.375 5.921875 18.40625 C 6.109375 18.4375 6.476562 18.496094 6.734375 18.53125 Z M 17.183594 18.488281 C 17.183594 18.527344 16.886719 19.175781 16.722656 19.5 C 16.453125 20.023438 16.058594 20.65625 15.785156 21.003906 C 15.691406 21.125 15.730469 21.113281 15.261719 21.160156 C 14.628906 21.222656 13.855469 21.277344 13.855469 21.253906 C 13.855469 21.25 13.886719 21.15625 13.929688 21.050781 C 14.15625 20.46875 14.363281 19.734375 14.578125 18.792969 C 14.589844 18.746094 14.601562 18.742188 15.007812 18.710938 C 15.605469 18.667969 16.519531 18.570312 16.992188 18.5 C 17.082031 18.484375 17.160156 18.472656 17.171875 18.46875 C 17.179688 18.46875 17.183594 18.476562 17.183594 18.488281 Z M 9.34375 18.777344 C 9.652344 18.792969 10.277344 18.816406 10.734375 18.824219 C 11.195312 18.835938 11.574219 18.847656 11.578125 18.847656 C 11.578125 18.851562 11.589844 19.402344 11.601562 20.070312 C 11.613281 20.742188 11.628906 21.296875 11.632812 21.304688 C 11.652344 21.335938 10.003906 21.304688 9.664062 21.269531 L 9.5625 21.261719 L 9.503906 21.136719 C 9.261719 20.613281 8.976562 19.789062 8.785156 19.050781 C 8.707031 18.753906 8.703125 18.730469 8.75 18.742188 C 8.769531 18.746094 9.035156 18.761719 9.34375 18.777344 Z M 14.449219 18.914062 C 14.308594 19.585938 14.023438 20.554688 13.816406 21.085938 L 13.738281 21.277344 L 13.472656 21.285156 C 13.328125 21.292969 12.875 21.304688 12.46875 21.3125 L 11.726562 21.324219 L 11.714844 20.773438 C 11.707031 20.46875 11.695312 19.914062 11.6875 19.535156 L 11.675781 18.847656 L 12.152344 18.835938 C 12.90625 18.820312 13.941406 18.785156 14.164062 18.769531 C 14.273438 18.761719 14.390625 18.753906 14.425781 18.753906 L 14.484375 18.75 Z M 21.164062 19.589844 C 20.695312 20.179688 19.453125 21.363281 19.304688 21.367188 C 19.285156 21.367188 19.234375 21.402344 19.195312 21.449219 C 19.105469 21.554688 18.871094 21.726562 18.445312 22.003906 C 18.003906 22.285156 17.855469 22.367188 17.550781 22.492188 C 17.011719 22.707031 16.335938 22.902344 15.664062 23.03125 C 15.339844 23.097656 14.722656 23.195312 14.648438 23.195312 C 14.628906 23.195312 14.722656 23.148438 14.855469 23.089844 C 15.199219 22.941406 15.730469 22.679688 16.046875 22.5 C 16.898438 22.023438 17.582031 21.53125 18.269531 20.914062 L 18.523438 20.6875 L 18.714844 20.636719 C 19 20.558594 19.527344 20.382812 19.8125 20.269531 C 20.1875 20.121094 20.726562 19.855469 20.964844 19.699219 C 21.082031 19.621094 21.179688 19.558594 21.183594 19.558594 C 21.1875 19.554688 21.179688 19.570312 21.164062 19.589844 Z M 2.988281 19.703125 C 3.425781 20.027344 4.152344 20.363281 4.945312 20.613281 L 5.277344 20.71875 L 5.472656 20.898438 C 6.410156 21.765625 7.644531 22.550781 8.953125 23.117188 C 9.035156 23.15625 9.09375 23.1875 9.085938 23.191406 C 9.03125 23.207031 8.105469 23.035156 7.667969 22.925781 C 7.304688 22.835938 6.722656 22.652344 6.53125 22.566406 C 6.230469 22.429688 5.601562 22.054688 5.148438 21.734375 C 4.933594 21.582031 4.796875 21.449219 4.695312 21.292969 C 4.675781 21.257812 4.648438 21.226562 4.640625 21.226562 C 4.605469 21.226562 4.574219 21.261719 4.585938 21.289062 C 4.617188 21.371094 4.011719 20.839844 3.578125 20.40625 C 3.28125 20.109375 2.828125 19.613281 2.855469 19.613281 C 2.863281 19.613281 2.921875 19.652344 2.988281 19.703125 Z M 18.175781 20.867188 C 17.523438 21.464844 16.683594 22.054688 15.828125 22.511719 C 15.367188 22.761719 14.519531 23.148438 14.257812 23.230469 C 14.191406 23.25 13.625 23.304688 13.484375 23.304688 C 13.410156 23.304688 13.410156 23.304688 13.617188 23.171875 C 13.859375 23.015625 14.140625 22.8125 14.382812 22.613281 C 14.65625 22.394531 15.304688 21.75 15.527344 21.476562 C 15.636719 21.34375 15.738281 21.226562 15.753906 21.214844 C 15.769531 21.203125 15.835938 21.1875 15.910156 21.179688 C 16.347656 21.136719 17.566406 20.925781 18.050781 20.804688 C 18.3125 20.738281 18.316406 20.742188 18.175781 20.867188 Z M 5.832031 20.859375 C 6.15625 20.933594 6.695312 21.039062 6.988281 21.085938 L 7.195312 21.117188 L 7.316406 21.25 C 8.007812 22.019531 8.941406 22.753906 9.804688 23.214844 L 9.9375 23.289062 L 9.8125 23.277344 C 9.464844 23.246094 9.230469 23.160156 8.449219 22.78125 C 7.605469 22.367188 6.886719 21.925781 6.214844 21.402344 C 6 21.234375 5.625 20.917969 5.523438 20.816406 C 5.480469 20.777344 5.476562 20.773438 5.511719 20.78125 C 5.535156 20.789062 5.675781 20.820312 5.832031 20.859375 Z M 7.835938 21.203125 C 8.28125 21.261719 8.6875 21.296875 9.21875 21.335938 C 9.371094 21.347656 9.496094 21.359375 9.5 21.363281 C 9.5 21.363281 9.574219 21.503906 9.664062 21.675781 C 10 22.308594 10.289062 22.722656 10.714844 23.1875 C 10.878906 23.367188 10.910156 23.351562 10.464844 23.324219 L 10.171875 23.304688 L 9.898438 23.15625 C 9.066406 22.707031 8.296875 22.128906 7.640625 21.453125 C 7.398438 21.207031 7.347656 21.148438 7.378906 21.148438 C 7.386719 21.148438 7.589844 21.175781 7.835938 21.203125 Z M 15.570312 21.277344 C 15.371094 21.550781 14.703125 22.226562 14.347656 22.523438 C 14.089844 22.734375 13.714844 23.003906 13.4375 23.175781 C 13.1875 23.328125 13.15625 23.339844 12.820312 23.34375 L 12.640625 23.34375 L 12.71875 23.253906 C 13.027344 22.910156 13.421875 22.242188 13.699219 21.613281 L 13.808594 21.367188 L 14.039062 21.351562 C 14.316406 21.335938 15.160156 21.265625 15.335938 21.246094 C 15.40625 21.234375 15.496094 21.230469 15.535156 21.226562 L 15.609375 21.226562 Z M 10.363281 21.394531 C 10.722656 21.40625 11.15625 21.417969 11.324219 21.417969 L 11.632812 21.421875 L 11.636719 21.570312 C 11.648438 21.890625 11.703125 23.0625 11.714844 23.210938 L 11.726562 23.367188 L 11.359375 23.359375 L 10.996094 23.347656 L 10.835938 23.183594 C 10.554688 22.882812 10.226562 22.457031 9.992188 22.066406 C 9.867188 21.859375 9.648438 21.453125 9.632812 21.394531 C 9.621094 21.355469 9.621094 21.351562 9.660156 21.363281 C 9.6875 21.367188 10.003906 21.382812 10.363281 21.394531 Z M 13.636719 21.519531 C 13.535156 21.769531 13.1875 22.425781 13.050781 22.636719 C 12.894531 22.882812 12.6875 23.15625 12.578125 23.273438 L 12.496094 23.363281 L 11.820312 23.363281 L 11.808594 23.1875 C 11.785156 22.898438 11.738281 21.808594 11.738281 21.605469 L 11.738281 21.414062 L 12.214844 21.410156 C 12.476562 21.410156 12.847656 21.402344 13.039062 21.394531 C 13.226562 21.386719 13.453125 21.378906 13.542969 21.378906 L 13.699219 21.375 Z M 17 22.796875 C 16.949219 22.847656 16.132812 23.171875 15.703125 23.3125 C 14.761719 23.621094 13.714844 23.820312 12.769531 23.878906 C 12.660156 23.882812 12.535156 23.894531 12.488281 23.898438 C 12.351562 23.914062 12.410156 23.890625 12.625 23.839844 C 13.046875 23.738281 13.703125 23.542969 14.078125 23.398438 C 14.191406 23.355469 14.304688 23.332031 14.539062 23.304688 C 15.371094 23.203125 16.261719 23.023438 16.800781 22.851562 C 17.039062 22.773438 17.023438 22.777344 17 22.796875 Z M 7.550781 22.996094 C 7.980469 23.109375 8.5625 23.21875 9.152344 23.296875 C 9.445312 23.335938 9.515625 23.351562 9.769531 23.441406 C 10.097656 23.5625 10.566406 23.707031 10.910156 23.800781 C 11.179688 23.875 11.15625 23.882812 10.777344 23.839844 C 9.6875 23.722656 8.75 23.5 7.722656 23.109375 C 7.457031 23.007812 7.226562 22.90625 7.335938 22.9375 C 7.355469 22.945312 7.449219 22.96875 7.550781 22.996094 Z M 10.292969 23.464844 C 10.363281 23.496094 10.46875 23.542969 10.53125 23.570312 C 10.746094 23.65625 10.617188 23.625 10.261719 23.511719 C 10.0625 23.449219 9.898438 23.390625 9.890625 23.386719 C 9.886719 23.382812 9.945312 23.382812 10.023438 23.390625 C 10.125 23.394531 10.195312 23.417969 10.292969 23.464844 Z M 13.535156 23.484375 C 13.242188 23.578125 12.609375 23.757812 12.566406 23.757812 C 12.550781 23.757812 12.699219 23.679688 12.886719 23.589844 L 13.230469 23.421875 L 13.441406 23.402344 C 13.875 23.367188 13.882812 23.375 13.535156 23.484375 Z M 11 23.472656 C 11.023438 23.488281 11.105469 23.554688 11.183594 23.617188 C 11.261719 23.675781 11.347656 23.742188 11.371094 23.761719 L 11.421875 23.796875 L 11.371094 23.78125 C 11.261719 23.753906 10.832031 23.597656 10.632812 23.511719 L 10.421875 23.417969 L 10.691406 23.429688 C 10.898438 23.4375 10.96875 23.445312 11 23.472656 Z M 11.457031 23.457031 L 11.734375 23.457031 L 11.746094 23.65625 C 11.753906 23.765625 11.753906 23.859375 11.75 23.863281 C 11.734375 23.878906 11.453125 23.703125 11.28125 23.574219 C 11.125 23.457031 11.089844 23.421875 11.152344 23.445312 C 11.171875 23.449219 11.308594 23.457031 11.457031 23.457031 Z M 12.804688 23.527344 C 12.710938 23.574219 12.578125 23.632812 12.507812 23.664062 C 12.355469 23.726562 12.167969 23.800781 12.179688 23.789062 C 12.1875 23.785156 12.273438 23.707031 12.378906 23.609375 L 12.5625 23.4375 L 12.980469 23.4375 Z M 12.269531 23.582031 C 12.136719 23.703125 11.90625 23.867188 11.871094 23.867188 C 11.859375 23.867188 11.835938 23.644531 11.835938 23.519531 L 11.835938 23.457031 L 12.410156 23.457031 Z M 12.269531 23.582031 "/>
</g>
</svg>
